<?xml version="1.0" standalone="no"?>
<svg xmlns="http://www.w3.org/2000/svg" viewBox="0 0 101 79" width="101" height="79"><g fill="#6590da" color="#6590da" transform="translate(28.004 0) scale(0.44) "><svg width="100.0" height="100.0" x="0.0" y="0.0" viewBox="0 0 100 100"><g><path d="M93.926,7.859c-0.097-0.163-0.214-0.312-0.349-0.445l-0.398-0.4c-0.132-0.129-0.278-0.242-0.434-0.337   c-4.462-2.678-12.771-0.174-18.521,5.58l-8.416,8.414l-38.194-2.546c-0.062-0.003-0.123-0.006-0.185-0.006   c-3.17,0.044-5.575,1.787-6.126,4.446c-0.542,2.612,0.829,6.561,6.472,9.113l18.231,9.116c-2.979,3.5-8.587,10.266-11.385,14.817   l-10.62,1.181c-1.269,0.141-2.183,1.284-2.042,2.555l0.653,5.886c0.117,1.047,0.926,1.884,1.972,2.033l7.661,1.094l1.096,7.663   c0.149,1.043,0.984,1.854,2.033,1.972l5.886,0.653c0.606,0.065,1.219-0.11,1.699-0.492c0.48-0.384,0.785-0.94,0.855-1.552   l1.178-10.621c4.553-2.797,11.317-8.402,14.818-11.382l9.116,18.231c2.218,4.902,5.49,6.58,8.024,6.58   c0.381,0,0.747-0.038,1.087-0.108c2.66-0.551,4.403-2.956,4.444-6.126c0-0.062,0-0.123-0.003-0.185l-2.549-38.198l8.414-8.414   C94.099,20.629,96.604,12.321,93.926,7.859z M75.92,32.266c-0.472,0.472-0.718,1.125-0.674,1.79l2.61,39.141   c-0.023,0.706-0.231,1.468-0.756,1.576c-0.785,0.159-2.566-0.744-3.979-3.884c-0.012-0.029-0.026-0.057-0.041-0.086l-10.464-20.93   c-0.319-0.642-0.92-1.099-1.623-1.236c-0.146-0.029-0.296-0.043-0.445-0.043c-0.557,0-1.099,0.201-1.523,0.576   c-0.117,0.101-11.725,10.272-17.326,13.383c-0.653,0.363-1.093,1.022-1.175,1.767l-1.052,9.475l-1.808-0.202L36.61,66.21   c-0.085-0.577-0.372-1.075-0.782-1.427c-0.354-0.415-0.853-0.706-1.433-0.788L27.01,62.94l-0.199-1.808l9.475-1.055   c0.744-0.082,1.403-0.519,1.767-1.175c3.111-5.602,13.28-17.208,13.383-17.324c0.472-0.539,0.668-1.267,0.53-1.972   c-0.138-0.703-0.592-1.302-1.233-1.623L29.802,27.52c-0.029-0.015-0.059-0.026-0.088-0.041c-3.138-1.409-4.049-3.188-3.885-3.976   c0.108-0.524,0.873-0.734,1.579-0.757l39.141,2.609c0.665,0.041,1.315-0.199,1.79-0.672l9.154-9.157   c4.614-4.614,10.351-5.996,12.604-5.019c0.973,2.256-0.407,7.989-5.021,12.604L75.92,32.266z"></path><path d="M26.061,46.546c0.902-0.902,0.902-2.367,0-3.269c-0.902-0.904-2.367-0.904-3.27,0L5.679,60.389   c-0.905,0.903-0.905,2.367,0,3.271c0.451,0.451,1.043,0.679,1.635,0.679s1.184-0.228,1.635-0.679L26.061,46.546z"></path><path d="M53.312,75.652L38.515,90.45c-0.905,0.903-0.905,2.366,0,3.269c0.451,0.453,1.043,0.679,1.635,0.679   s1.184-0.226,1.635-0.679l14.798-14.797c0.905-0.902,0.905-2.367,0-3.27C55.68,74.747,54.215,74.747,53.312,75.652z"></path><path d="M24.64,72.876L9.379,88.139c-0.905,0.902-0.905,2.367,0,3.27c0.451,0.451,1.043,0.676,1.635,0.676s1.184-0.225,1.635-0.676   l15.261-15.261c0.902-0.904,0.902-2.367,0-3.271C27.007,71.973,25.542,71.973,24.64,72.876z"></path></g></svg></g><path fill="#0b005d" fill-rule="nonzero" d="M10.20 16.87L10.20 16.87L10.22 16.87Q10.51 15.74 11.16 13.92L11.16 13.92L15.53 1.75L13.58 1.51Q13.49 1.15 13.58 0.62L13.58 0.62Q14.90 0.72 16.13 0.72L16.13 0.72Q17.18 0.72 18.72 0.65L18.72 0.65Q18.86 1.08 18.72 1.51L18.72 1.51L17.14 1.80Q16.75 2.38 16.18 3.94L16.18 3.94L9.98 20.52L9.14 20.52L2.04 1.75L0.10 1.51Q0 1.15 0.10 0.62L0.10 0.62Q1.42 0.72 3.50 0.72L3.50 0.72Q5.38 0.72 6.94 0.65L6.94 0.65Q7.08 1.08 6.94 1.51L6.94 1.51L4.94 1.80L9.34 13.92Q9.84 15.38 10.20 16.87ZM23.50 10.87L23.50 10.87L23.50 18.58L25.44 18.94Q25.46 19.06 25.48 19.15Q25.49 19.25 25.49 19.37L25.49 19.37Q25.49 19.49 25.48 19.62Q25.46 19.75 25.44 19.90L25.44 19.90Q23.93 19.82 22.34 19.82L22.34 19.82Q21.79 19.82 21.01 19.84Q20.23 19.85 19.22 19.87L19.22 19.87Q19.15 19.66 19.15 19.42L19.15 19.42Q19.15 19.20 19.22 18.94L19.22 18.94L21.12 18.67Q21.17 18 21.19 17.24Q21.22 16.49 21.22 15.62L21.22 15.62L21.22 10.51Q21.22 8.93 21.14 8.16L21.14 8.16L19.25 7.92Q19.20 7.80 19.20 7.51L19.20 7.51Q19.20 7.39 19.20 7.27Q19.20 7.15 19.25 7.01L19.25 7.01Q20.88 6.91 23.38 6.50L23.38 6.50Q23.59 6.74 23.62 6.98L23.62 6.98Q23.50 7.66 23.50 10.87ZM19.99 2.30L19.99 2.30Q19.94 2.18 19.94 2.05Q19.94 1.92 19.94 1.80L19.94 1.80Q19.94 1.15 20.48 0.76Q21.02 0.36 21.82 0.36L21.82 0.36Q22.56 0.36 23.03 0.80Q23.50 1.25 23.50 2.02L23.50 2.02Q23.50 2.64 22.96 3.02Q22.42 3.41 21.58 3.41L21.58 3.41Q21.00 3.41 20.56 3.12Q20.11 2.83 19.99 2.30ZM29.18 16.61L29.18 16.61Q29.18 17.86 29.64 18.37Q30.10 18.89 31.08 18.89L31.08 18.89Q31.80 18.89 32.68 18.44Q33.55 18 34.30 17.16L34.30 17.16L34.30 13.42Q31.82 13.56 30.50 14.29Q29.18 15.02 29.18 16.61ZM34.30 12.55L34.30 12.55L34.30 11.33Q34.30 9.29 33.83 8.36Q33.36 7.44 32.28 7.44L32.28 7.44Q31.18 7.44 30.50 8.15Q29.83 8.86 29.59 10.56L29.59 10.56Q28.82 10.73 28.46 10.73L28.46 10.73Q27.53 10.73 27.36 10.06L27.36 10.06Q27.36 8.42 28.78 7.46Q30.19 6.50 32.30 6.50L32.30 6.50Q34.63 6.50 35.60 7.45Q36.58 8.40 36.58 10.85L36.58 10.85L36.58 17.62Q36.58 18.22 36.65 18.65L36.65 18.65L38.54 18.89Q38.64 19.25 38.54 19.80L38.54 19.80Q36.84 19.87 34.92 20.14L34.92 20.14Q34.73 19.94 34.68 19.66L34.68 19.66L34.56 18Q32.57 20.28 30.12 20.28L30.12 20.28Q28.61 20.28 27.76 19.42Q26.90 18.55 26.90 17.09L26.90 17.09Q26.90 14.88 28.91 13.75Q30.91 12.62 34.30 12.55ZM41.26 20.83L41.26 20.83L41.26 10.51Q41.26 8.93 41.18 8.16L41.18 8.16L39.05 7.92Q38.95 7.56 39.05 7.01L39.05 7.01Q41.16 6.86 43.42 6.50L43.42 6.50Q43.63 6.74 43.66 6.98L43.66 6.98Q43.54 7.61 43.54 10.87L43.54 10.87L43.54 19.56Q43.54 21.50 43.19 23.06Q42.84 24.62 41.96 25.69Q41.09 26.76 39.79 26.76L39.79 26.76Q38.35 26.76 37.74 26.33Q37.13 25.90 37.13 24.96L37.13 24.96Q37.70 24.14 38.76 24.14L38.76 24.14Q39.10 24.14 39.46 24.22L39.46 24.22Q39.72 25.92 40.20 25.92L40.20 25.92Q40.78 25.92 41.02 24.77Q41.26 23.62 41.26 20.83ZM40.03 2.30L40.03 2.30Q39.98 2.18 39.98 2.05Q39.98 1.92 39.98 1.80L39.98 1.80Q39.98 1.15 40.52 0.76Q41.06 0.36 41.86 0.36L41.86 0.36Q42.60 0.36 43.07 0.80Q43.54 1.25 43.54 2.02L43.54 2.02Q43.54 2.64 43.00 3.02Q42.46 3.41 41.62 3.41L41.62 3.41Q41.04 3.41 40.60 3.12Q40.15 2.83 40.03 2.30ZM50.50 12.77L48.36 18.74L50.30 18.98Q50.40 19.34 50.30 19.87L50.30 19.87Q48.79 19.80 47.76 19.80L47.76 19.80Q47.18 19.80 45.17 19.85L45.17 19.85Q45.02 19.42 45.17 18.98L45.17 18.98L46.75 18.70Q47.14 18.12 47.71 16.56L47.71 16.56L53.90 0L54.74 0L61.70 18.74L63.65 18.98Q63.74 19.34 63.65 19.87L63.65 19.87Q62.14 19.80 60.26 19.80L60.26 19.80Q58.87 19.80 56.86 19.85L56.86 19.85Q56.71 19.42 56.86 18.98L56.86 18.98L58.85 18.70L56.74 12.77L50.50 12.77ZM53.69 3.62L53.69 3.62L53.66 3.62Q53.38 4.75 52.73 6.58L52.73 6.58L50.93 11.57L56.30 11.57L54.55 6.58Q54.05 5.11 53.69 3.62ZM64.44 0.62L64.44 0.62Q65.42 0.62 67.57 0.53Q69.72 0.43 71.47 0.43L71.47 0.43Q75.12 0.43 76.68 1.88Q78.24 3.34 78.24 5.93L78.24 5.93Q78.24 7.49 77.16 8.74Q76.08 9.98 74.33 10.61L74.33 10.61Q75.36 12.36 76.26 13.90Q77.16 15.43 77.57 16.18Q77.98 16.92 78.31 17.51Q78.65 18.10 78.80 18.31Q78.96 18.53 79.10 18.67L79.10 18.67L80.83 18.91Q80.93 19.27 80.83 19.80L80.83 19.80L76.75 19.80L73.13 13.22Q72.41 11.86 71.76 11.11L71.76 11.11L71.42 11.11Q70.20 11.11 68.95 10.97L68.95 10.97L68.95 18.74L71.14 18.98Q71.23 19.34 71.14 19.87L71.14 19.87Q69.62 19.80 67.73 19.80L67.73 19.80Q66.31 19.80 64.30 19.85L64.30 19.85Q64.15 19.42 64.30 18.98L64.30 18.98L66.29 18.70Q66.38 17.78 66.38 15.89L66.38 15.89L66.38 1.75L64.44 1.51Q64.34 1.15 64.44 0.62ZM68.95 4.61L68.95 4.61L68.95 9.98Q69.70 10.08 71.11 10.08L71.11 10.08Q72.34 10.08 73.21 9.68Q74.09 9.29 74.52 8.63Q74.95 7.97 75.14 7.27Q75.34 6.58 75.34 5.81L75.34 5.81Q75.34 3.74 74.30 2.59Q73.27 1.44 70.87 1.44L70.87 1.44Q69.98 1.44 69.10 1.61L69.10 1.61Q68.95 2.98 68.95 4.61ZM96.77 20.23L96.77 20.23L96.14 18.26Q93.36 20.28 90.77 20.28L90.77 20.28Q88.42 20.28 86.66 19.43Q84.91 18.58 83.76 17.17Q82.61 15.77 82.04 13.98Q81.48 12.19 81.48 10.32L81.48 10.32Q81.48 8.42 82.14 6.61Q82.80 4.80 84.08 3.38Q85.37 1.97 87.22 1.09Q89.06 0.22 91.44 0.22L91.44 0.22Q94.75 0.22 97.54 1.66L97.54 1.66L97.54 6.26Q97.10 6.34 96.77 6.34L96.77 6.34Q96.41 6.34 96.17 6.26L96.17 6.26L95.40 2.26Q93.86 1.30 91.15 1.30L91.15 1.30Q89.64 1.30 88.42 1.98Q87.19 2.66 86.30 3.83Q85.42 4.99 84.94 6.56Q84.46 8.14 84.46 9.91L84.46 9.91Q84.46 11.81 84.90 13.42Q85.34 15.02 86.16 16.20Q86.98 17.38 88.14 18.04Q89.30 18.70 90.74 18.70L90.74 18.70Q93.07 18.70 95.33 17.42L95.33 17.42L95.33 12.31L93.38 12.07Q93.34 11.95 93.34 11.69L93.34 11.69Q93.34 11.57 93.34 11.45Q93.34 11.33 93.38 11.18L93.38 11.18Q94.06 11.23 94.86 11.26Q95.66 11.28 96.67 11.28L96.67 11.28Q98.42 11.28 99.98 11.21L99.98 11.21Q100.06 11.42 100.06 11.64L100.06 11.64Q100.06 11.86 99.98 12.07L99.98 12.07L97.99 12.36Q97.94 12.82 97.92 13.51Q97.90 14.21 97.90 15.17L97.90 15.17L97.90 17.59L97.66 20.23Q97.56 20.28 97.46 20.28Q97.37 20.28 97.25 20.28L97.25 20.28Q97.13 20.28 97.01 20.28Q96.89 20.28 96.77 20.23Z" transform="translate(0, 52)"></path></svg>